<svg width="28" height="28" viewBox="0 0 28 28" fill="none" xmlns="http://www.w3.org/2000/svg">
<path d="M28 14C28 16.7689 27.1789 19.4757 25.6405 21.778C24.1022 24.0802 21.9157 25.8746 19.3576 26.9343C16.7994 27.9939 13.9845 28.2711 11.2688 27.731C8.55304 27.1908 6.05846 25.8574 4.10053 23.8995C2.1426 21.9415 0.809199 19.447 0.269006 16.7312C-0.271186 14.0155 0.00608182 11.2006 1.06571 8.64242C2.12533 6.08425 3.91975 3.89776 6.22204 2.35942C8.52432 0.821083 11.231 0 14 0C17.713 0 21.274 1.47499 23.8995 4.1005C26.525 6.726 28 10.287 28 14Z" fill="white"/>
<path d="M10.5718 14.002L15.5718 19.002" stroke="#0F172A" stroke-width="2" stroke-linecap="round" stroke-linejoin="round"/>
<path d="M15.5718 9.00195L10.5718 14.002" stroke="#0F172A" stroke-width="2" stroke-linecap="round" stroke-linejoin="round"/>
</svg>
