<svg width="32" height="32" viewBox="0 0 32 32" fill="none" xmlns="http://www.w3.org/2000/svg">
<path d="M32 16C32 19.1645 31.0616 22.2579 29.3035 24.8891C27.5454 27.5203 25.0465 29.571 22.1229 30.782C19.1993 31.993 15.9823 32.3099 12.8786 31.6925C9.7749 31.0752 6.92396 29.5513 4.68632 27.3137C2.44868 25.076 0.924799 22.2251 0.307436 19.1214C-0.309927 16.0177 0.00695065 12.8007 1.21795 9.87705C2.42895 6.95343 4.47972 4.45458 7.1109 2.69648C9.74208 0.938381 12.8355 0 16 0C20.2434 0 24.3131 1.6857 27.3137 4.68628C30.3143 7.68686 32 11.7565 32 16Z" fill="white"/>
<path d="M16.1174 8.75C16.4852 8.75024 16.7688 9.05664 16.7688 9.41602C16.7688 9.77543 16.4852 10.0818 16.1174 10.082H13.3489C12.2753 10.0822 11.3872 10.9886 11.387 12.1211V20.5449C11.387 21.6776 12.2751 22.5838 13.3489 22.584H16.1174C16.4852 22.5842 16.7688 22.8916 16.7688 23.251C16.7686 23.6102 16.4851 23.9168 16.1174 23.917H13.3489C11.5399 23.9168 10.0833 22.3959 10.0833 20.5449V12.1211C10.0835 10.2703 11.5401 8.75019 13.3489 8.75H16.1174Z" fill="#0F172A" stroke="#0F172A" stroke-width="0.5"/>
<path d="M19.6814 12.6377C19.9366 12.3735 20.3549 12.3735 20.6101 12.6377L23.7292 15.8662L23.7332 15.8701C23.7581 15.8971 23.7845 15.9298 23.8093 15.9688H23.8103C23.8219 15.9868 23.8297 16.0033 23.8328 16.0098L23.8669 16.0762V16.0781C23.8761 16.0998 23.8817 16.1186 23.8845 16.1289C23.8857 16.1331 23.8872 16.1398 23.8875 16.1406C23.8879 16.1425 23.8877 16.1424 23.8875 16.1416C23.8872 16.1407 23.8875 16.1409 23.8884 16.1436C23.8891 16.1454 23.8909 16.1507 23.8923 16.1553C23.8954 16.1648 23.8999 16.1825 23.9041 16.2041H23.905C23.9128 16.243 23.9167 16.2824 23.9167 16.3223L23.9177 16.334C23.9177 16.3403 23.917 16.3459 23.9167 16.3506V16.3535C23.9158 16.3812 23.9137 16.4207 23.905 16.4639L23.9041 16.4697C23.9004 16.4858 23.8961 16.4998 23.8933 16.5088C23.889 16.5226 23.8894 16.5199 23.8875 16.5264C23.8862 16.5304 23.8866 16.5312 23.8835 16.542C23.8812 16.5502 23.877 16.5628 23.8718 16.5771L23.8689 16.5869L23.8669 16.5859C23.8539 16.6179 23.8396 16.6452 23.8328 16.6572C23.8298 16.6633 23.8216 16.6795 23.8103 16.6973C23.7906 16.7284 23.7649 16.7669 23.7302 16.8027L20.6101 20.0312L20.6091 20.0322C20.4828 20.1616 20.3157 20.2295 20.1462 20.2295C19.9778 20.2295 19.8089 20.1632 19.6814 20.0312C19.4312 19.7719 19.4311 19.3549 19.6814 19.0957L21.7058 17.001H14.7585C14.3907 17.001 14.1064 16.6943 14.1062 16.335C14.1062 15.9754 14.3905 15.668 14.7585 15.668H21.7058L19.6814 13.5732C19.4311 13.314 19.4312 12.897 19.6814 12.6377ZM23.9167 16.3613C23.9165 16.3643 23.9157 16.367 23.9158 16.3662C23.9158 16.3658 23.9164 16.3614 23.9167 16.3564V16.3613Z" fill="#0F172A" stroke="#0F172A" stroke-width="0.5"/>
</svg>
