<svg width="15" height="26" viewBox="0 0 15 26" fill="none" xmlns="http://www.w3.org/2000/svg">
<path d="M11.5496 0.873291C12.3305 0.0924717 13.5976 0.0925868 14.3787 0.873291C15.1593 1.65423 15.1592 2.92043 14.3787 3.70142L5.07788 13.0012L14.3787 22.302C15.1596 23.0831 15.1597 24.3501 14.3787 25.1311C13.5976 25.912 12.3306 25.912 11.5496 25.1311L0.835693 14.4163C0.689504 14.27 0.570684 14.1068 0.479248 13.9329C0.448638 13.8747 0.420718 13.8155 0.39624 13.7551C0.347395 13.6347 0.311275 13.5102 0.286865 13.384C0.201395 12.9426 0.265411 12.478 0.479248 12.0715C0.570754 11.8974 0.689339 11.7335 0.835693 11.5872L11.5496 0.873291Z" fill="#0F172A"/>
</svg>
